<svg id="Stats" xmlns="http://www.w3.org/2000/svg" width="23.51" height="24" viewBox="0 0 23.51 24">
    <path id="Fill_312" data-name="Fill 312" d="M4.325,7.5H.979A.991.991,0,0,1,0,6.5V1A.991.991,0,0,1,.979,0H4.325A.991.991,0,0,1,5.3,1V6.5A.991.991,0,0,1,4.325,7.5ZM1.959,2V5.5H3.344V2Z" transform="translate(1.959 13)" fill="#b8c5d3"/>
    <path id="Fill_313" data-name="Fill 313" d="M4.325,14H.979A.991.991,0,0,1,0,13V1A.991.991,0,0,1,.979,0H4.325A.991.991,0,0,1,5.3,1V13A.991.991,0,0,1,4.325,14ZM1.959,2V12H3.344V2Z" transform="translate(9.103 6.5)" fill="#b8c5d3"/>
    <path id="Fill_314" data-name="Fill 314" d="M4.325,20.5H.979A.991.991,0,0,1,0,19.5V1A.991.991,0,0,1,.979,0H4.325A.991.991,0,0,1,5.3,1V19.5A.991.991,0,0,1,4.325,20.5ZM1.959,2V18.5H3.344V2Z" transform="translate(16.247)" fill="#b8c5d3"/>
    <path id="Fill_315" data-name="Fill 315" d="M22.531,2H.98A.988.988,0,0,1,0,1,.992.992,0,0,1,.98,0H22.531a.992.992,0,0,1,.98,1,.988.988,0,0,1-.98,1" transform="translate(0 22)" fill="#b8c5d3"/>
  </svg>
  