<svg xmlns="http://www.w3.org/2000/svg" width="30.583" height="27.737" viewBox="0 0 30.583 27.737">
    <path id="Icon_awesome-history" data-name="Icon awesome-history" d="M31.145,14.4c.016,7.641-6.855,13.889-15.28,13.894a16.224,16.224,0,0,1-9.608-3.071,1.261,1.261,0,0,1-.113-1.991l.695-.63A1.6,1.6,0,0,1,8.8,22.5a12.048,12.048,0,0,0,7.049,2.224c6.271,0,11.345-4.6,11.345-10.289S22.124,4.141,15.854,4.141A11.954,11.954,0,0,0,8.081,6.934L11.21,9.772a.887.887,0,0,1-.7,1.527H1.549A.944.944,0,0,1,.563,10.4V2.275a1,1,0,0,1,1.684-.633L5.291,4.4A16.1,16.1,0,0,1,15.854.563C24.29.563,31.13,6.757,31.145,14.4ZM19.991,18.81,20.6,18.1a1.26,1.26,0,0,0-.26-1.883l-2.51-1.77V8.615a1.416,1.416,0,0,0-1.48-1.342h-.987a1.416,1.416,0,0,0-1.48,1.342V16.2l4.033,2.845a1.584,1.584,0,0,0,2.077-.235Z" transform="translate(-0.563 -0.563)" fill="#b8c5d3"/>
  </svg>
  